<svg width="27" height="28" viewBox="0 0 27 28" fill="none" xmlns="http://www.w3.org/2000/svg">
<path d="M11.8016 2.97304L6.19375 5.08582C4.90136 5.56906 3.84497 7.09746 3.84497 8.46852V16.8185C3.84497 18.1446 4.72155 19.8865 5.78918 20.6844L10.6216 24.2919C12.2062 25.4831 14.8134 25.4831 16.398 24.2919L21.2304 20.6844C22.2981 19.8865 23.1747 18.1446 23.1747 16.8185V8.46852C23.1747 7.08622 22.1183 5.55782 20.8259 5.07458L15.218 2.97304C14.2628 2.62466 12.7344 2.62466 11.8016 2.97304Z" stroke="#EB3474" stroke-width="1.68573" stroke-linecap="round" stroke-linejoin="round"/>
<path d="M13.4989 14.5147C14.7402 14.5147 15.7465 13.5084 15.7465 12.267C15.7465 11.0257 14.7402 10.0194 13.4989 10.0194C12.2575 10.0194 11.2512 11.0257 11.2512 12.267C11.2512 13.5084 12.2575 14.5147 13.4989 14.5147Z" stroke="#EB3474" stroke-width="1.68573" stroke-miterlimit="10" stroke-linecap="round" stroke-linejoin="round"/>
<path d="M13.4988 14.5147V17.8861" stroke="#EB3474" stroke-width="1.68573" stroke-miterlimit="10" stroke-linecap="round" stroke-linejoin="round"/>
</svg>
